<svg xmlns="http://www.w3.org/2000/svg" width="276" height="36" viewBox="0 0 276 36" fill="none"><path d="M27.1705 27.1015C19.2039 28.0509 12.5951 21.2993 12.3917 13.3326C12.4518 10.983 13.0722 8.94198 14.1166 7.00562C6.44853 7.18102 0.197007 13.4309 0 21.1759C0.00308565 24.5451 1.25633 27.8325 3.51621 30.331L2.727 31.4043C1.83952 32.5825 0.404457 34.4292 2.13028 35.1268C2.78729 35.3981 3.71251 35.4088 4.34958 35.4088H14.7781C20.3945 35.4088 25.3325 32.5605 27.8302 27.1012H27.1705V27.1015Z" fill="#3852FF"></path><path d="M38.4317 21.4102C40.5169 19.1054 41.6728 16.1093 41.6759 13.0015C41.4891 5.65248 35.3923 -0.160171 28.0435 0.00336792C20.6945 -0.159934 14.5984 5.65248 14.4111 13.0015C14.5984 20.3497 20.6945 26.1628 28.0435 25.9999H37.6636C38.2516 25.9995 39.1039 26.0272 39.7104 25.7773C41.303 25.1341 39.9788 23.4683 39.1606 22.3819L38.4317 21.4102Z" fill="#00B6CF"></path><path d="M66.5206 25.1174H63.3782V34.7418H54.7118V3.28577H68.3463C75.1272 3.28577 80.0431 7.84279 80.0431 14.4181C80.0431 18.2782 78.157 21.4415 75.0498 23.3017L81.2958 34.7416H71.6238L66.5206 25.1174ZM63.3782 17.8173H67.3366C69.7593 17.8173 71.1538 16.3585 71.1538 14.3924C71.1538 12.4259 69.7593 10.9868 67.3366 10.9868H63.3782V17.8173Z" fill="#001847"></path><path d="M109.144 22.3793C109.144 23.1108 109.08 23.8419 108.971 24.5919H90.9533C91.5004 27.3757 93.2682 28.8148 95.9071 28.8148C97.8601 28.8148 99.4912 27.9598 100.294 26.539H108.611C106.904 32.0772 101.995 35.5372 95.9071 35.5372C88.3354 35.5372 82.7267 30.0037 82.7267 22.5901C82.7267 15.1508 88.2906 9.68042 95.9071 9.68042C103.729 9.68042 109.145 15.2609 109.145 22.3781L109.144 22.3793ZM91.1004 19.9639H100.91C100.177 17.5386 98.4288 16.2301 95.9064 16.2301C93.4704 16.2298 91.7766 17.5533 91.1004 19.9639Z" fill="#001847"></path><path d="M138.775 10.4499V34.7162H132.313L131.597 33.0003C129.611 34.6096 127.093 35.5372 124.275 35.5372C116.856 35.5372 111.551 30.1238 111.551 22.5829C111.551 15.0677 116.856 9.71863 124.275 9.71863C127.133 9.71863 129.686 10.673 131.69 12.3265L132.545 10.4497L138.775 10.4499ZM130.825 22.6024C130.825 19.4527 128.524 17.0871 125.393 17.0871C122.243 17.0871 119.961 19.4529 119.961 22.6024C119.961 25.7716 122.262 28.1364 125.393 28.1364C128.524 28.1364 130.825 25.7714 130.825 22.6024Z" fill="#001847"></path><path d="M144.042 1.71301H152.4V34.7415H144.042V1.71301Z" fill="#001847"></path><path d="M194.883 19.5221V34.7415H186.525V20.5556C186.525 18.0208 185.592 16.7979 183.816 16.7979C181.518 16.7979 180.341 18.3802 180.341 21.4361V34.7415H172.2V20.5556C172.2 18.0975 171.274 16.7979 169.525 16.7979C167.258 16.7979 166.017 18.4184 166.017 21.4361V34.7415H157.659V10.4755H163.536L164.726 13.0828C166.48 11.0399 169.024 9.75745 171.819 9.75745C174.778 9.75745 177.269 11.0869 178.778 13.3302C180.522 11.1353 183.209 9.75745 186.23 9.75745C191.428 9.75745 194.883 13.808 194.883 19.5221Z" fill="#001847"></path><path d="M225.685 10.4499V34.7162H219.223L218.508 33.0003C216.521 34.6096 214.004 35.5372 211.186 35.5372C203.765 35.5372 198.462 30.1238 198.462 22.5829C198.462 15.0677 203.765 9.71863 211.186 9.71863C214.043 9.71863 216.597 10.673 218.6 12.3265L219.455 10.4497L225.685 10.4499ZM217.735 22.6024C217.735 19.4527 215.434 17.0871 212.303 17.0871C209.154 17.0871 206.871 19.4529 206.871 22.6024C206.871 25.7716 209.172 28.1364 212.303 28.1364C215.434 28.1364 217.735 25.7714 217.735 22.6024Z" fill="#001847"></path><path d="M247.318 27.4211V34.7417H241.567C236.201 34.7417 232.94 31.4614 232.94 26.0687V16.9129H228.498V14.9589L239.37 3.38135H241.087V10.476H247.183V16.9131H241.298V24.6353C241.298 26.373 242.346 27.4214 244.11 27.4214H247.318V27.4211Z" fill="#001847"></path><path d="M276 22.3793C276 23.1108 275.936 23.8419 275.827 24.5919H257.808C258.355 27.3757 260.123 28.8148 262.762 28.8148C264.715 28.8148 266.346 27.9598 267.15 26.539H275.467C273.759 32.0772 268.85 35.5372 262.762 35.5372C255.191 35.5372 249.582 30.0037 249.582 22.5901C249.582 15.1508 255.145 9.68042 262.762 9.68042C270.584 9.68042 276 15.2609 276 22.3781L276 22.3793ZM257.955 19.9639H267.765C267.031 17.5386 265.284 16.2301 262.762 16.2301C260.325 16.2298 258.632 17.5533 257.955 19.9639Z" fill="#001847"></path></svg>