<svg xmlns="http://www.w3.org/2000/svg" width="44" height="37" viewBox="0 0 44 37" fill="none"><path d="M39.9776 22.2712C42.1462 19.8742 43.3484 16.7572 43.3524 13.5243C43.1575 5.87965 36.8156 -0.1667 29.1715 0.00351156C21.5271 -0.166807 15.1853 5.87965 14.9908 13.5243C15.1853 21.1685 21.5271 27.2152 29.1715 27.0457H39.1785C39.7899 27.0452 40.6769 27.074 41.3071 26.8141C42.9643 26.1446 41.5869 24.4123 40.7356 23.282L39.9776 22.2712Z" fill="#00B6CF"></path><path d="M28.2631 28.7982C19.9757 29.3308 13.1012 22.4588 12.8901 14.1722C12.9524 11.7284 13.5979 9.45352 14.6843 7.43921C6.70792 7.62167 0.205042 14.0468 0 22.1032C0.00362153 25.6078 1.30716 28.9899 3.65806 31.5889L2.83619 32.6866C1.91376 33.9119 0.420844 35.9064 2.21638 36.6318C2.89988 36.9142 3.86193 37 4.52425 37H15.3721C21.2145 37 26.3511 33.9111 28.9491 28.7983H28.2631V28.7982Z" fill="#3852FF"></path></svg>